<mxfile host="app.diagrams.net" modified="2022-07-05T11:47:47.585Z" agent="5.0 (Macintosh)" etag="fkin-1nEFrREx4Ad8DG7" version="20.0.3" type="github">
  <diagram id="dgySgIXKoiI1m48yWmHK" name="Page-1">
    <mxGraphModel dx="701" dy="444" grid="1" gridSize="10" guides="1" tooltips="1" connect="1" arrows="1" fold="1" page="1" pageScale="1" pageWidth="827" pageHeight="1169" background="#DAD2D8" math="0" shadow="0">
      <root>
        <mxCell id="0" />
        <mxCell id="1" parent="0" />
      </root>
    </mxGraphModel>
  </diagram>
</mxfile>
